<mxfile host="www.draw.io" modified="2020-01-27T12:15:59.470Z" agent="Mozilla/5.0 (Windows NT 10.0; Win64; x64; rv:72.0) Gecko/20100101 Firefox/72.0" etag="ybA-OLvxBdHCg9f5_F3z" version="12.5.8" type="github">
  <diagram id="jQBnss5lQtiXKUDuyyAC" name="Page-1">
    <mxGraphModel dx="1410" dy="778" grid="1" gridSize="10" guides="1" tooltips="1" connect="1" arrows="1" fold="1" page="1" pageScale="1" pageWidth="827" pageHeight="1169" math="0" shadow="0">
      <root>
        <mxCell id="0"/>
        <mxCell id="1" parent="0"/>
        <mxCell id="dbNkGXfZDiDE7y2Umqq_-2" value="" style="rounded=0;whiteSpace=wrap;html=1;" parent="1" vertex="1">
          <mxGeometry x="190" y="40" width="310" height="470" as="geometry"/>
        </mxCell>
        <mxCell id="dbNkGXfZDiDE7y2Umqq_-13" style="edgeStyle=none;rounded=0;orthogonalLoop=1;jettySize=auto;html=1;endArrow=none;endFill=0;strokeColor=#000000;" parent="1" target="dbNkGXfZDiDE7y2Umqq_-8" edge="1">
          <mxGeometry relative="1" as="geometry">
            <mxPoint x="80" y="240" as="sourcePoint"/>
          </mxGeometry>
        </mxCell>
        <mxCell id="dbNkGXfZDiDE7y2Umqq_-14" style="edgeStyle=none;rounded=0;orthogonalLoop=1;jettySize=auto;html=1;endArrow=none;endFill=0;strokeColor=#000000;" parent="1" target="dbNkGXfZDiDE7y2Umqq_-7" edge="1">
          <mxGeometry relative="1" as="geometry">
            <mxPoint x="80" y="270" as="sourcePoint"/>
          </mxGeometry>
        </mxCell>
        <mxCell id="dbNkGXfZDiDE7y2Umqq_-15" style="edgeStyle=none;rounded=0;orthogonalLoop=1;jettySize=auto;html=1;endArrow=none;endFill=0;strokeColor=#000000;" parent="1" target="dbNkGXfZDiDE7y2Umqq_-5" edge="1">
          <mxGeometry relative="1" as="geometry">
            <mxPoint x="80" y="260" as="sourcePoint"/>
          </mxGeometry>
        </mxCell>
        <mxCell id="dbNkGXfZDiDE7y2Umqq_-17" style="edgeStyle=none;rounded=0;orthogonalLoop=1;jettySize=auto;html=1;endArrow=none;endFill=0;strokeColor=#000000;" parent="1" target="dbNkGXfZDiDE7y2Umqq_-16" edge="1">
          <mxGeometry relative="1" as="geometry">
            <mxPoint x="80" y="280" as="sourcePoint"/>
          </mxGeometry>
        </mxCell>
        <mxCell id="dbNkGXfZDiDE7y2Umqq_-3" value="&lt;div&gt;User&lt;/div&gt;&lt;div&gt;&lt;br&gt;&lt;/div&gt;" style="shape=umlActor;verticalLabelPosition=bottom;labelBackgroundColor=#ffffff;verticalAlign=top;html=1;" parent="1" vertex="1">
          <mxGeometry x="30" y="220" width="40" height="80" as="geometry"/>
        </mxCell>
        <mxCell id="dbNkGXfZDiDE7y2Umqq_-5" value="set task status" style="ellipse;whiteSpace=wrap;html=1;" parent="1" vertex="1">
          <mxGeometry x="270" y="180" width="120" height="50" as="geometry"/>
        </mxCell>
        <mxCell id="dbNkGXfZDiDE7y2Umqq_-7" value="find task" style="ellipse;whiteSpace=wrap;html=1;" parent="1" vertex="1">
          <mxGeometry x="310" y="300" width="120" height="50" as="geometry"/>
        </mxCell>
        <mxCell id="dbNkGXfZDiDE7y2Umqq_-8" value="&lt;div&gt;add task&lt;/div&gt;" style="ellipse;whiteSpace=wrap;html=1;" parent="1" vertex="1">
          <mxGeometry x="270" y="70" width="120" height="50" as="geometry"/>
        </mxCell>
        <mxCell id="dbNkGXfZDiDE7y2Umqq_-16" value="remove task" style="ellipse;whiteSpace=wrap;html=1;" parent="1" vertex="1">
          <mxGeometry x="270" y="440" width="120" height="50" as="geometry"/>
        </mxCell>
        <mxCell id="dbNkGXfZDiDE7y2Umqq_-20" value="&amp;lt;&amp;lt;extend&amp;gt;&amp;gt;" style="edgeStyle=none;html=1;startArrow=open;endArrow=none;startSize=12;verticalAlign=bottom;dashed=1;labelBackgroundColor=none;strokeColor=#000000;" parent="1" source="dbNkGXfZDiDE7y2Umqq_-5" target="dbNkGXfZDiDE7y2Umqq_-7" edge="1">
          <mxGeometry width="160" relative="1" as="geometry">
            <mxPoint x="-70" y="110" as="sourcePoint"/>
            <mxPoint x="90" y="110" as="targetPoint"/>
          </mxGeometry>
        </mxCell>
        <mxCell id="dbNkGXfZDiDE7y2Umqq_-21" value="&amp;lt;&amp;lt;extend&amp;gt;&amp;gt;" style="edgeStyle=none;html=1;startArrow=open;endArrow=none;startSize=12;verticalAlign=bottom;dashed=1;labelBackgroundColor=none;strokeColor=#000000;" parent="1" source="dbNkGXfZDiDE7y2Umqq_-16" target="dbNkGXfZDiDE7y2Umqq_-7" edge="1">
          <mxGeometry width="160" relative="1" as="geometry">
            <mxPoint x="367.10862623966295" y="239.97095520290895" as="sourcePoint"/>
            <mxPoint x="358.12077005144056" y="310.03383958847553" as="targetPoint"/>
          </mxGeometry>
        </mxCell>
      </root>
    </mxGraphModel>
  </diagram>
</mxfile>
